# xmcd
#
# Track frame offsets:
# 150
# 16328
# 27380
# 47632
# 74366
# 99015
# 118103
# 139685
# 161487
# 184067
#
# Disc length: 2691 seconds
#
# Revision: 0
# Processed by: cddbd v1.5.1PL0 Copyright (c) Steve Scherf et al.
# Submitted via: Audion 3.0.2 (http://www.panic.com/audion/)
#
DISCID=7d0a810a
DTITLE=pezet - rudy
DYEAR=1900
DGENRE=
TTITLE0=tyfghfhg
TTITLE1=ewgy
TTITLE2=ewesd
TTITLE3=ewew
TTITLE4=podw
TTITLE5=hfhgfg
TTITLE6=hfghfhfgbj
TTITLE7=jhgjgh
TTITLE8=juyhu
TTITLE9=uhuhihhfg
EXTD=
EXTT0=
EXTT1=
EXTT2=
EXTT3=
EXTT4=
EXTT5=
EXTT6=
EXTT7=
EXTT8=
EXTT9=
PLAYORDER=
